<?xml version="1.0" encoding="utf-8"?>
<!-- Generator: Adobe Illustrator 25.1.0, SVG Export Plug-In . SVG Version: 6.00 Build 0)  -->
<svg version="1.1" xmlns="http://www.w3.org/2000/svg" xmlns:xlink="http://www.w3.org/1999/xlink" x="0px" y="0px"
	 viewBox="0 0 3000 3000" enable-background="new 0 0 3000 3000" xml:space="preserve">
<g id="Слой_1" display="none">
	<path display="inline" fill="#B9DAEB" d="M339.152,2541.882c-5.707-43.287,28.104-84.879,69.8-113.053
		c66.419-44.879,134.137-137.243,58.442-206.672c-36.982-33.92-88.003-22.017-125.097-47.906
		c-37.726-26.331-47.72-93.392-52.725-134.708c-16.308-134.634-20.62-278.08-2.379-415.462
		c14.801-111.469,40.774-312.006,137.429-386.233c77.421-59.456,126.548,44.175,188.143,69.806
		c71.858,29.901,110.121-39.03,140.285-93.29c25.053-45.066,54.215-71.976,103.152-88.247
		c62.521-20.788,116.989-20.589,153.196-85.1c22.557-40.192,31.968-86.345,50.541-128.527
		c52.552-119.351,233.684-173.945,354.216-150.968c74.546,14.211,143.508,54.97,220.124,67.691
		c187.62,31.151,408.679-58.729,472.459-250.068c12.695-36.968,34.667-76.079,72.499-85.908
		c49.671-12.906,97.515,34.103,109.856,83.917c14.252,57.529-5.161,111.093-1.529,168.659c2.204,34.933,13.436,70.468,37.738,95.659
		c27.729,28.742,71.591,40.764,110.099,30.176c81.917-22.523,82.299-126.583,151.338-164.462
		c73.587-40.375,122.989,28.481,188.971,14.886c30.646-6.314,95.801-95.507,121.141-21.725
		c27.353,79.684-155.903,114.218-201.577,125.083c-49.416,11.755-99.813,18.555-149.281,29.749
		c-62.891,14.231-119.606,56.271-169.692,97.081c-40.141,32.707-78.848,76.207-53.535,130.42
		c22.334,47.832,70.251,100.782,65.689,156.924c-5.533,68.092-92.704,81.889-90.337,154.974c0.931,28.744,9.564,57.345,5.88,85.869
		c-16.282,126.025-196.824-25.051-215.126,101.165c-7.567,52.181,82.368,95.014,44.533,146.414
		c-8.652,11.754-21.601,19.455-34.191,26.839c-56.386,33.068-122.191,49.817-121.099,123.747
		c0.868,58.77,42.713,119.071,12.211,176.632c-22.08,41.307-72.811,65.081-118.683,55.619
		c-37.811-7.799-73.012-35.523-110.889-28.056c-40.913,8.065-62.1,51.941-90.817,82.184
		c-48.121,50.679-116.777,63.496-174.45,98.737c-74.456,45.496-85.512,116.928-106.61,196.046
		c-33.336,125.011-150.537,176.855-270.261,195.008c-199.608,30.265-406.693,20.108-606.033-5.554
		c-49.08-6.318-100.817-15.564-138.006-48.208C352.563,2581.692,341.753,2561.611,339.152,2541.882z"/>
</g>
<g id="Слой_2">
	<g>
		<path d="M854.891,2604.416c-22.344,0-44.087-3.63-65.312-7.174c-21.234-3.545-41.291-6.894-61.845-6.897c-0.018,0-0.037,0-0.055,0
			c-24.354,0-48.668,2.851-72.184,5.608c-36.699,4.303-74.648,8.751-114.497,2.783c-56.197-8.421-109.853-30.246-159.993-51.879
			c-13.823-5.962-28.089-10.266-43.193-14.822c-19.518-5.888-39.7-11.976-58.626-21.926c-28.419-14.94-40.958-27.141-43.282-42.107
			l0,0c-2.708-17.451,9.794-35.008,26.42-56.147c14.521-18.464,32.228-37.226,50.975-57.089
			c34.821-36.896,70.829-75.047,88.182-113.609c19.458-43.282,24.84-74.602,15.994-93.085c-4.455-9.309-12.689-15.419-25.171-18.681
			c-10.928-2.854-22.47-3.154-34.689-3.471c-5.888-0.152-11.976-0.311-18.044-0.776c-21.512-1.651-47.26-8.469-68.875-18.24
			c-19.086-8.627-44.333-23.772-56.229-46.929c-14.822-28.854-6.753-65.598,0.365-98.017c3.39-15.44,6.593-30.024,7.247-42.641
			c1.474-28.437-6.964-56.44-15.124-83.521c-7.815-25.935-15.896-52.754-15.698-80.576c0.122-17.196,10.041-38.473,20.542-60.999
			c12.086-25.926,25.785-55.311,18.483-69.683c-6.638-13.067-15.988-14.837-27.825-17.079c-16.619-3.146-37.301-7.062-40.353-45.887
			c-5.785-73.826,36.043-128.441,76.493-181.259c11.341-14.809,22.054-28.796,31.81-43.254c7.98-11.826,11.139-35.215,13.678-54.007
			c1.117-8.272,2.172-16.086,3.546-22.726c2.013-9.731,3.802-19.865,5.533-29.666c4.056-22.97,8.25-46.722,15.9-69.466
			c3.533-10.504,10.468-18.344,20.612-23.302c21.917-10.709,58.615-7.169,109.077,10.521c27.398,9.604,58.334,23.07,80.05,50.125
			c5.488,6.846,8.495,13.107,10.911,18.137c4.02,8.37,5.524,11.501,15.059,13.691c8.155,1.846,33.472-4.019,66.011-18.809
			c32.508-14.776,53.582-29.951,57.598-37.304c11.106-20.368,10.641-39.29,10.19-57.589c-0.723-29.354-1.47-59.708,53.738-76.212
			c19.847-5.933,40.809-8.383,61.081-10.753c25.673-3.001,49.923-5.836,72.015-15.109c49.942-20.963,79.36-56.246,92.579-111.036
			c3.303-13.687,4.186-29.18,5.121-45.583c1.711-30.009,3.48-61.039,20.512-85.674c15.055-21.775,39.539-34.703,72.771-38.427
			c22.524-2.525,48.233-0.988,80.904,4.836c7.974,1.421,15.714-3.373,18.011-11.149c1.206-4.081,2.219-9.75,3.291-15.751
			c2.208-12.358,4.71-26.364,10.49-37.689c9.737-19.075,24.711-21.801,35.564-20.723c17.176,1.703,30.65,12.538,42.538,22.097
			c2.536,2.039,4.932,3.965,7.355,5.811c45.532,34.674,98.742,32.042,155.072,29.254c62.806-3.107,127.75-6.32,181.283,45.654
			c13.135,12.753,32.927,27.079,52.566,22.913c16.708-3.542,28.347-20.219,40.669-37.874c9.062-12.985,18.434-26.413,30.562-34.991
			c14.855-10.508,31.12-12.072,49.719-4.784c11.396,4.466,21.214,12.239,30.708,19.755c16.029,12.69,26.617,20.151,38.431,16.762
			c19.774-5.672,20.519-39.006,20.276-49.087c-0.566-23.569-1.343-55.847,22.501-72.002c17.487-11.848,39.403-8.093,54.712-2.857
			c5.091,1.742,10.057,3.762,14.859,5.716c9.849,4.007,19.151,7.791,28.741,8.993c11.654,1.46,26.173-2.644,30.125-13.128
			c3.532-9.365-1.775-19.983-7.921-32.279c-6.599-13.2-14.076-28.162-10.301-44.36c4.535-19.453,18.68-24.469,29.008-28.13
			c5.64-2,10.51-3.727,13.74-7.201c8.159-8.775,11.733-24.18,15.517-40.489c6.49-27.975,14.567-62.79,53.241-67.225
			c20.952-2.401,43.644,7.489,63.86,27.86c41.071,41.387,71.078,100.089,78.312,153.197c3.457,25.38,0.079,50.757-3.187,75.298
			c-4.788,35.972-9.31,69.948,6.799,102.348c11.906,23.948,22.332,37.788,31.874,42.312c6.949,3.294,13.425,1.595,24.271-1.691
			c3.802-1.152,7.732-2.343,12.026-3.298c57.299-12.763,102.605-64.341,142.579-109.847c10.772-12.264,20.947-23.847,31.158-34.523
			c9.162-9.581,30.099-26.186,54.411-40.002c20.562-11.685,50.067-24.975,73.851-21.938c13.734,1.754,24.413,8.806,30.881,20.395
			c3.275,5.868,4.964,11.939,6.597,17.811c1.539,5.535,2.993,10.763,5.605,14.817c1.732,2.69,3.387,3.345,4.776,3.631
			c10.599,2.183,33.004-12.893,52.761-26.196c30.62-20.617,62.275-41.944,89.816-34.91c12.494,3.189,22.533,11.949,29.836,26.035
			c21.062,40.621-43.776,93.662-56.988,103.883c-28.862,22.327-67.658,33.27-118.202,33.271c-5.875,0-11.898-0.147-18.094-0.442
			c-77.966-3.708-153.375,13.485-206.886,47.177c-34.379,21.646-67.329,50.974-99.193,79.336
			c-17.792,15.836-36.19,32.211-54.693,47.129c-25.609,20.647-41.685,36.947-42.692,54.388
			c-0.741,12.805,6.895,27.166,23.344,43.902l1.188,1.208c18.256,18.569,40.976,41.679,56.456,67.938
			c18.987,32.205,22.427,62.285,10.224,89.402c-11.615,25.805-33.096,45.612-53.868,64.768
			c-17.94,16.543-34.887,32.169-45.794,51.149c-12.444,21.657-14.859,31.05-6.896,51.555c2.747,7.073,8.371,14.473,14.325,22.309
			c15.421,20.294,36.541,48.088,2.2,79.627c-19.262,17.664-63.605,17.67-114.952,17.677c-46.788,0.006-99.817,0.013-113.945,16.991
			c-1.987,2.388-4.453,6.515-2.935,14.742c3.085,16.708,21.751,28.312,41.514,40.598c14.591,9.07,29.679,18.449,40.093,30.979
			c12.739,15.328,16.243,32.501,10.71,52.501c-10.29,36.975-51.979,54.163-88.762,69.327c-18.935,7.807-36.82,15.18-48,24.13
			c-34.115,27.312-55.491,75.097-55.787,124.707c-0.11,18.382,5.694,36.18,11.307,53.392c9.734,29.849,19.799,60.715,0.981,95.867
			c-4.702,8.759-17.559,31.054-35.437,49.1c-19.746,19.93-39.292,28.502-58.119,25.479c-11.633-1.869-22.514-12.752-33.036-23.277
			c-6.023-6.025-12.252-12.256-16.904-14.865c-38.377-21.501-92.344-16.646-131.231,11.811
			c-16.416,12.012-25.623,33.916-34.527,55.099c-12.691,30.191-25.815,61.411-60.385,67.19c-15.054,2.517-29.919,1.082-44.299-0.306
			c-9.419-0.909-18.327-1.767-27.181-1.58c-47.079,0.997-79.618,32.302-98.626,58.389c-23.178,31.81-39.706,74.682-44.214,114.685
			c-0.722,6.409-1.847,13.155-2.934,19.68c-2.268,13.607-4.612,27.678-3.575,39.741c0.562,6.505,3.336,14.126,6.272,22.196
			c6.912,18.993,15.514,42.63-4.271,61.781c-8.2,7.938-18.467,12.118-27.525,15.806c-13.595,5.535-27.187,11.082-40.777,16.627
			c-51.796,21.137-105.356,42.994-158.315,63.862c-5.423,2.206-11.361,3.042-17.181,2.419c-10.116-1.083-19.959-2.614-29.479-4.094
			c-32.805-5.102-61.135-9.509-91.785,4.097c-7.419,3.293-14.951,7.088-22.235,10.758c-19.338,9.743-39.333,19.819-61.715,23.17
			C872.505,2603.857,863.65,2604.416,854.891,2604.416z M727.676,2571.344c0.022,0,0.039,0,0.062,0
			c22.127,0.004,43.906,3.64,64.969,7.157c29.381,4.906,57.134,9.541,85.933,5.226c19.368-2.9,37.152-11.861,55.98-21.348
			c7.489-3.773,15.232-7.674,23.076-11.157c35.759-15.871,69.644-10.602,102.415-5.504c9.298,1.446,18.913,2.941,28.58,3.976
			c2.721,0.29,5.497-0.103,8.03-1.139l0.115-0.046c52.868-20.833,106.39-42.674,158.149-63.795
			c13.596-5.548,27.191-11.097,40.792-16.634c7.825-3.186,15.917-6.48,21.475-11.86c10.404-10.07,6.638-22.38-0.368-41.632
			c-3.229-8.874-6.569-18.051-7.348-27.062c-1.243-14.455,1.302-29.727,3.764-44.496c1.094-6.57,2.129-12.775,2.794-18.684
			c4.861-43.132,22.707-89.392,47.738-123.747c30.884-42.386,70.159-65.276,113.58-66.195c9.975-0.21,19.856,0.741,29.408,1.663
			c13.759,1.328,26.752,2.583,39.341,0.478c24.244-4.052,34.327-28.039,46.002-55.812c9.908-23.571,20.154-47.945,40.822-63.069
			c21.167-15.488,47.395-25.505,73.854-28.205c28.13-2.871,55.068,2.369,77.889,15.153c6.943,3.894,13.797,10.749,21.052,18.005
			c7.197,7.199,17.054,17.059,22.612,17.951c28.333,4.556,59.724-38.587,73.797-64.797c14.985-27.993,6.975-52.556-2.3-80.999
			c-6.082-18.65-12.371-37.936-12.243-59.396c0.156-26.175,5.685-52.61,15.986-76.446c10.986-25.419,27.213-47.197,46.927-62.979
			c13.301-10.648,32.405-18.524,52.632-26.863c34.363-14.167,69.896-28.817,77.695-56.841c7.888-28.513-10.804-42.545-42.525-62.265
			c-22.397-13.923-45.557-28.321-50.166-53.284c-2.198-11.902,0.162-22.111,7.014-30.346c19.824-23.823,72.635-23.83,128.547-23.837
			c41.389-0.005,88.299-0.012,102.108-12.676c20.627-18.944,12.648-31.59-4.481-54.133c-6.486-8.536-13.194-17.363-16.908-26.925
			c-10.726-27.614-6.387-42.633,8.133-67.9c12.359-21.505,31.184-38.864,49.388-55.65c20.262-18.684,39.399-36.332,49.422-58.598
			c22.301-49.556-28.973-101.71-62.902-136.222l-1.189-1.21c-20.422-20.778-29.829-39.854-28.762-58.317
			c1.566-27.086,25.429-48.485,49.735-68.082c18.144-14.627,36.365-30.846,53.986-46.53c32.443-28.877,65.991-58.737,101.703-81.222
			c30.087-18.944,65.624-32.851,105.625-41.335c35.482-7.526,74.308-10.549,112.286-8.742c54.795,2.607,95.278-6.839,123.769-28.879
			c26.762-20.703,62.627-59.121,51.746-80.109c-4.77-9.198-10.549-14.553-17.669-16.371c-19.276-4.919-48.62,14.832-74.504,32.261
			c-23.434,15.778-44.009,29.63-61.287,29.631c-2.018,0-3.987-0.188-5.914-0.584c-6.954-1.431-12.805-5.563-16.92-11.951
			c-4.174-6.477-6.088-13.36-7.939-20.018c-1.396-5.018-2.713-9.757-4.882-13.642c-3.557-6.373-8.862-9.808-16.697-10.808
			c-33.771-4.319-94.675,37.981-112.124,56.225c-9.933,10.386-19.979,21.823-30.614,33.931
			c-41.892,47.69-89.371,101.743-152.726,115.854c-3.598,0.8-7.18,1.885-10.645,2.935c-11.25,3.409-24.002,7.273-37.92,0.675
			c-13.918-6.598-26.485-22.334-40.748-51.021c-18.696-37.605-13.573-76.093-8.619-113.314c3.243-24.367,6.306-47.382,3.194-70.227
			c-6.705-49.22-34.666-103.776-72.973-142.378c-9.283-9.354-27.897-24.699-48.21-22.367c-23.651,2.712-29.717,21.697-36.896,52.642
			c-4.18,18.018-8.502,36.649-20.111,49.133c-6.404,6.887-14.32,9.694-21.305,12.17c-9.913,3.515-14.771,5.601-16.854,14.536
			c-2.22,9.523,3.129,20.223,8.792,31.553c7.108,14.222,15.166,30.342,8.704,47.478c-7.465,19.795-30.931,27.698-50.267,25.276
			c-12.07-1.513-22.983-5.953-33.538-10.246c-4.767-1.94-9.27-3.771-13.85-5.338c-9.183-3.141-26.32-7.239-37.903,0.609
			c-14.11,9.56-14.763,30.934-14.165,55.815c0.883,36.636-11.521,61.351-34.032,67.808c-22.051,6.323-39.801-7.73-55.463-20.129
			c-8.401-6.652-17.089-13.53-25.846-16.962c-26.031-10.203-38.311,5.076-57.769,32.958c-13.893,19.905-28.257,40.487-52.309,45.587
			c-3.618,0.767-7.297,1.148-11.016,1.149c-18.931,0.002-39.012-9.873-58.728-29.017c-47.607-46.222-105.655-43.351-167.109-40.309
			c-57.259,2.832-116.47,5.763-167.522-33.115c-2.624-1.998-5.229-4.093-7.749-6.12c-10.778-8.667-20.957-16.852-32.508-17.997
			c-14.871-1.468-20.079,12.639-25.477,42.845c-1.167,6.533-2.27,12.704-3.772,17.792c-5.043,17.074-22.057,27.595-39.566,24.472
			c-70.058-12.487-114.126-4.084-134.713,25.691c-13.994,20.242-15.609,48.562-17.171,75.95
			c-0.941,16.522-1.916,33.606-5.619,48.958c-7.28,30.172-18.976,54.75-35.756,75.138c-17.3,21.018-39.522,37.033-67.94,48.961
			c-24.57,10.313-51.307,13.439-77.162,16.462c-20.358,2.379-39.587,4.627-57.846,10.085c-41.298,12.346-40.879,29.357-40.186,57.54
			c0.464,18.852,1.042,42.314-12.506,67.159c-10.322,18.899-53.443,39.604-66.414,45.5c-12.992,5.905-57.014,24.805-78.096,20.037
			c-18.479-4.245-23.301-14.283-27.963-23.99c-2.203-4.587-4.481-9.331-8.605-14.476c-18.664-23.253-45.401-34.93-71.514-44.084
			c-59.651-20.911-84.78-16.106-94.449-11.38c-5.562,2.718-9.04,6.623-10.946,12.289c-7.196,21.394-11.264,44.433-15.199,66.713
			c-1.754,9.934-3.568,20.207-5.637,30.21c-1.239,5.991-2.251,13.486-3.323,21.42c-2.949,21.835-6.292,46.583-16.758,62.092
			c-10.075,14.93-21.462,29.8-32.475,44.179c-38.274,49.976-77.851,101.654-72.635,168.22c1.914,24.345,10.094,25.894,24.946,28.706
			c12.814,2.426,30.362,5.748,41.23,27.141c11.492,22.621-3.604,55.001-18.202,86.316c-9.179,19.689-18.67,40.05-18.764,53.105
			c-0.177,24.954,7.142,49.243,14.891,74.959c8.629,28.638,17.552,58.25,15.907,89.987c-0.735,14.18-4.101,29.506-7.664,45.732
			c-6.745,30.721-13.72,62.487-2.021,85.26c16.96,33.018,75.46,52.283,109.657,54.907c5.588,0.429,11.171,0.574,17.082,0.727
			c12.758,0.331,25.95,0.674,38.999,4.082c17.969,4.694,30.588,14.405,37.507,28.861c11.531,24.095,6.361,59.775-15.806,109.081
			c-18.666,41.482-55.79,80.817-91.691,118.857c-18.444,19.543-35.866,38.002-49.858,55.793
			c-15.35,19.516-23.965,32.562-22.58,41.488l0,0c1.247,8.036,11.531,16.734,33.348,28.203
			c17.315,9.103,35.752,14.665,55.272,20.553c14.95,4.51,30.411,9.173,45.232,15.566c48.993,21.138,101.339,42.451,155.282,50.535
			c37.342,5.595,72.377,1.486,109.469-2.863C677.338,2574.261,702.216,2571.344,727.676,2571.344z"/>
	</g>
</g>
</svg>
